<svg xmlns="http://www.w3.org/2000/svg" xmlns:xlink="http://www.w3.org/1999/xlink" width="500" zoomAndPan="magnify" viewBox="0 0 375 374.999991" height="500" preserveAspectRatio="xMidYMid meet" version="1.0"><defs><clipPath id="1e0d383b53"><path d="M 168 172 L 250 172 L 250 255 L 168 255 Z M 168 172 " clip-rule="nonzero"/></clipPath><clipPath id="33080ded41"><path d="M 203.46875 173.164062 C 203.367188 174.257812 203.21875 175.347656 203.027344 176.429688 C 202.832031 177.511719 202.589844 178.582031 202.304688 179.640625 C 202.015625 180.703125 201.683594 181.75 201.304688 182.78125 C 200.925781 183.8125 200.503906 184.828125 200.039062 185.824219 C 199.574219 186.816406 199.066406 187.789062 198.515625 188.742188 C 197.964844 189.691406 197.371094 190.617188 196.742188 191.519531 C 196.109375 192.417969 195.441406 193.289062 194.734375 194.128906 C 194.027344 194.972656 193.289062 195.78125 192.511719 196.558594 C 191.734375 197.335938 190.925781 198.078125 190.082031 198.785156 C 189.242188 199.492188 188.371094 200.160156 187.472656 200.792969 C 186.574219 201.421875 185.648438 202.015625 184.699219 202.566406 C 183.746094 203.117188 182.773438 203.625 181.78125 204.089844 C 180.785156 204.558594 179.773438 204.980469 178.742188 205.355469 C 177.710938 205.734375 176.664062 206.070312 175.605469 206.355469 C 174.542969 206.644531 173.472656 206.882812 172.390625 207.078125 C 171.308594 207.273438 170.222656 207.421875 169.128906 207.519531 C 168.824219 210.375 168.832031 213.226562 169.160156 216.078125 C 169.484375 218.929688 170.121094 221.710938 171.0625 224.417969 C 172.003906 227.128906 173.234375 229.703125 174.746094 232.140625 C 176.257812 234.582031 178.019531 236.824219 180.03125 238.871094 L 195.3125 254.074219 C 198.460938 252.980469 201.539062 251.710938 204.542969 250.269531 C 207.546875 248.832031 210.464844 247.226562 213.285156 245.453125 C 216.109375 243.683594 218.828125 241.761719 221.433594 239.683594 C 224.039062 237.605469 226.523438 235.386719 228.878906 233.03125 C 231.234375 230.671875 233.453125 228.191406 235.527344 225.582031 C 237.605469 222.972656 239.527344 220.257812 241.296875 217.429688 C 243.066406 214.605469 244.671875 211.6875 246.109375 208.683594 C 247.550781 205.675781 248.816406 202.597656 249.910156 199.445312 L 234.714844 184.15625 C 232.679688 182.144531 230.445312 180.378906 228.015625 178.859375 C 225.589844 177.34375 223.023438 176.109375 220.324219 175.15625 C 217.621094 174.207031 214.847656 173.5625 212.003906 173.226562 C 209.160156 172.890625 206.316406 172.871094 203.46875 173.164062 Z M 203.46875 173.164062 " clip-rule="nonzero"/></clipPath><linearGradient x1="21.298903" gradientTransform="matrix(0.000000000000000526, 8.588993, -8.584601, 0.000000000000000526, 391.813505, -16.39483)" y1="17.460925" x2="31.708112" gradientUnits="userSpaceOnUse" y2="25.700089" id="88e4c0f419"><stop stop-opacity="1" stop-color="rgb(14.231873%, 21.061707%, 52.722168%)" offset="0"/><stop stop-opacity="1" stop-color="rgb(14.207458%, 21.022034%, 52.532959%)" offset="0.0625"/><stop stop-opacity="1" stop-color="rgb(14.157104%, 20.94574%, 52.156067%)" offset="0.125"/><stop stop-opacity="1" stop-color="rgb(14.108276%, 20.869446%, 51.780701%)" offset="0.1875"/><stop stop-opacity="1" stop-color="rgb(14.057922%, 20.793152%, 51.403809%)" offset="0.25"/><stop stop-opacity="1" stop-color="rgb(14.007568%, 20.716858%, 51.026917%)" offset="0.3125"/><stop stop-opacity="1" stop-color="rgb(13.95874%, 20.640564%, 50.650024%)" offset="0.375"/><stop stop-opacity="1" stop-color="rgb(13.908386%, 20.56427%, 50.273132%)" offset="0.4375"/><stop stop-opacity="1" stop-color="rgb(13.859558%, 20.487976%, 49.89624%)" offset="0.441592"/><stop stop-opacity="1" stop-color="rgb(13.835144%, 20.449829%, 49.708557%)" offset="0.5"/><stop stop-opacity="1" stop-color="rgb(13.809204%, 20.411682%, 49.519348%)" offset="0.558408"/><stop stop-opacity="1" stop-color="rgb(13.78479%, 20.373535%, 49.331665%)" offset="0.5625"/><stop stop-opacity="1" stop-color="rgb(13.75885%, 20.335388%, 49.142456%)" offset="0.625"/><stop stop-opacity="1" stop-color="rgb(13.710022%, 20.259094%, 48.765564%)" offset="0.6875"/><stop stop-opacity="1" stop-color="rgb(13.659668%, 20.1828%, 48.390198%)" offset="0.75"/><stop stop-opacity="1" stop-color="rgb(13.61084%, 20.106506%, 48.013306%)" offset="0.8125"/><stop stop-opacity="1" stop-color="rgb(13.560486%, 20.030212%, 47.636414%)" offset="0.875"/><stop stop-opacity="1" stop-color="rgb(13.510132%, 19.952393%, 47.259521%)" offset="0.9375"/><stop stop-opacity="1" stop-color="rgb(13.461304%, 19.876099%, 46.882629%)" offset="1"/></linearGradient><clipPath id="e50189c276"><path d="M 9 13 L 246 13 L 246 251 L 9 251 Z M 9 13 " clip-rule="nonzero"/></clipPath><clipPath id="298aae571b"><path d="M 122.601562 181.152344 L 69.460938 127.898438 C 68.515625 127.019531 67.617188 126.089844 66.761719 125.117188 C 65.910156 124.144531 65.105469 123.132812 64.355469 122.078125 C 63.601562 121.023438 62.90625 119.9375 62.265625 118.8125 C 61.621094 117.6875 61.039062 116.535156 60.511719 115.355469 C 59.984375 114.171875 59.519531 112.964844 59.113281 111.738281 C 58.707031 110.507812 58.363281 109.261719 58.085938 107.996094 C 57.804688 106.734375 57.585938 105.460938 57.433594 104.175781 C 57.28125 102.890625 57.195312 101.597656 57.171875 100.304688 C 57.148438 99.011719 57.191406 97.71875 57.296875 96.429688 C 57.40625 95.140625 57.578125 93.859375 57.8125 92.585938 C 58.046875 91.3125 58.347656 90.054688 58.707031 88.8125 C 59.070312 87.570312 59.492188 86.347656 59.976562 85.148438 C 60.460938 83.949219 61.007812 82.773438 61.609375 81.628906 C 62.210938 80.484375 62.867188 79.371094 63.582031 78.292969 C 64.296875 77.210938 65.0625 76.171875 65.882812 75.167969 C 66.699219 74.167969 67.566406 73.207031 68.480469 72.292969 C 69.394531 71.378906 70.355469 70.511719 71.355469 69.691406 C 72.359375 68.875 73.398438 68.105469 74.476562 67.390625 C 75.554688 66.679688 76.667969 66.019531 77.8125 65.417969 C 78.957031 64.8125 80.128906 64.269531 81.328125 63.785156 C 82.527344 63.300781 83.75 62.878906 84.992188 62.515625 C 86.234375 62.152344 87.492188 61.855469 88.761719 61.617188 C 90.035156 61.382812 91.316406 61.210938 92.605469 61.105469 C 93.894531 60.996094 95.183594 60.957031 96.480469 60.980469 C 97.773438 61 99.0625 61.089844 100.347656 61.242188 C 101.628906 61.394531 102.902344 61.609375 104.167969 61.890625 C 105.429688 62.171875 106.675781 62.515625 107.90625 62.921875 C 109.132812 63.324219 110.339844 63.792969 111.519531 64.320312 C 112.703125 64.84375 113.855469 65.429688 114.976562 66.074219 C 116.097656 66.714844 117.1875 67.414062 118.242188 68.164062 C 119.292969 68.917969 120.304688 69.71875 121.277344 70.574219 C 122.25 71.425781 123.179688 72.328125 124.058594 73.273438 L 177.199219 126.527344 C 179.972656 125.542969 182.789062 124.699219 185.644531 123.996094 C 188.503906 123.289062 191.386719 122.726562 194.300781 122.304688 C 197.210938 121.882812 200.136719 121.601562 203.078125 121.46875 C 206.015625 121.332031 208.957031 121.34375 211.894531 121.496094 C 214.835938 121.652344 217.757812 121.949219 220.667969 122.390625 C 223.578125 122.832031 226.457031 123.417969 229.308594 124.140625 C 232.164062 124.867188 234.972656 125.730469 237.738281 126.730469 C 240.507812 127.730469 243.21875 128.867188 245.875 130.132812 C 241.550781 120.914062 235.828125 112.671875 228.707031 105.398438 L 160.027344 36.683594 C 158.96875 35.71875 157.886719 34.777344 156.78125 33.863281 C 155.679688 32.949219 154.550781 32.058594 153.40625 31.199219 C 152.257812 30.335938 151.089844 29.503906 149.90625 28.699219 C 148.71875 27.890625 147.511719 27.113281 146.289062 26.367188 C 145.066406 25.617188 143.824219 24.902344 142.566406 24.210938 C 141.308594 23.523438 140.035156 22.863281 138.746094 22.238281 C 137.457031 21.609375 136.152344 21.011719 134.835938 20.445312 C 133.515625 19.878906 132.183594 19.347656 130.84375 18.84375 C 129.5 18.34375 128.144531 17.871094 126.777344 17.433594 C 125.414062 16.996094 124.035156 16.59375 122.652344 16.222656 C 121.265625 15.847656 119.875 15.511719 118.472656 15.207031 C 117.070312 14.902344 115.664062 14.628906 114.25 14.390625 C 112.835938 14.152344 111.414062 13.949219 109.992188 13.777344 C 108.566406 13.609375 107.140625 13.472656 105.710938 13.371094 C 104.28125 13.269531 102.847656 13.199219 101.414062 13.167969 C 99.980469 13.132812 98.546875 13.132812 97.113281 13.167969 C 95.679688 13.203125 94.246094 13.273438 92.816406 13.375 C 91.386719 13.476562 89.960938 13.613281 88.535156 13.785156 C 87.113281 13.957031 85.691406 14.164062 84.277344 14.402344 C 82.863281 14.640625 81.457031 14.914062 80.054688 15.21875 C 78.65625 15.527344 77.261719 15.867188 75.878906 16.238281 C 74.492188 16.609375 73.117188 17.015625 71.75 17.457031 C 70.386719 17.894531 69.03125 18.363281 67.6875 18.867188 C 66.347656 19.371094 65.015625 19.90625 63.699219 20.472656 C 62.378906 21.039062 61.078125 21.636719 59.789062 22.265625 C 58.5 22.894531 57.226562 23.554688 55.96875 24.242188 C 54.710938 24.933594 53.46875 25.652344 52.246094 26.402344 C 51.023438 27.152344 49.820312 27.929688 48.632812 28.734375 C 47.445312 29.542969 46.28125 30.375 45.132812 31.238281 C 43.988281 32.101562 42.863281 32.988281 41.757812 33.90625 C 40.65625 34.820312 39.574219 35.761719 38.515625 36.730469 C 37.457031 37.695312 36.421875 38.691406 35.410156 39.707031 C 34.398438 40.722656 33.410156 41.765625 32.449219 42.828125 C 31.484375 43.890625 30.550781 44.980469 29.640625 46.085938 C 28.730469 47.195312 27.847656 48.324219 26.992188 49.476562 C 26.132812 50.628906 25.304688 51.796875 24.503906 52.988281 C 23.703125 54.179688 22.933594 55.390625 22.191406 56.617188 C 21.449219 57.84375 20.734375 59.089844 20.050781 60.347656 C 19.367188 61.609375 18.714844 62.886719 18.09375 64.179688 C 17.46875 65.472656 16.878906 66.78125 16.320312 68.101562 C 15.757812 69.421875 15.230469 70.753906 14.734375 72.101562 C 14.238281 73.445312 13.773438 74.804688 13.339844 76.171875 C 12.910156 77.539062 12.511719 78.917969 12.144531 80.304688 C 11.777344 81.691406 11.445312 83.089844 11.144531 84.492188 C 10.847656 85.894531 10.582031 87.304688 10.347656 88.71875 C 10.117188 90.136719 9.917969 91.554688 9.753906 92.980469 C 9.589844 94.40625 9.457031 95.835938 9.363281 97.265625 C 9.265625 98.699219 9.203125 100.132812 9.175781 101.566406 C 9.148438 103 9.152344 104.4375 9.195312 105.871094 C 9.234375 107.304688 9.308594 108.738281 9.417969 110.167969 C 9.527344 111.597656 9.667969 113.023438 9.847656 114.449219 C 10.023438 115.871094 10.234375 117.292969 10.480469 118.707031 C 10.722656 120.121094 11 121.527344 11.3125 122.925781 C 11.625 124.328125 11.96875 125.71875 12.347656 127.105469 C 12.726562 128.488281 13.136719 129.863281 13.582031 131.226562 C 14.023438 132.589844 14.5 133.945312 15.007812 135.285156 C 15.515625 136.628906 16.054688 137.957031 16.628906 139.273438 C 17.199219 140.589844 17.800781 141.890625 18.4375 143.175781 C 19.070312 144.464844 19.734375 145.734375 20.429688 146.992188 C 21.121094 148.246094 21.847656 149.484375 22.601562 150.707031 C 23.351562 151.925781 24.136719 153.128906 24.945312 154.3125 C 25.757812 155.496094 26.59375 156.660156 27.460938 157.800781 C 28.328125 158.945312 29.222656 160.066406 30.140625 161.167969 C 31.058594 162.269531 32.007812 163.347656 32.976562 164.402344 L 101.652344 233.117188 C 108.921875 240.242188 117.164062 245.96875 126.378906 250.292969 C 125.109375 247.636719 123.976562 244.921875 122.976562 242.152344 C 121.976562 239.386719 121.113281 236.574219 120.390625 233.71875 C 119.664062 230.867188 119.082031 227.984375 118.640625 225.074219 C 118.199219 222.160156 117.902344 219.238281 117.746094 216.296875 C 117.59375 213.355469 117.582031 210.414062 117.71875 207.472656 C 117.851562 204.53125 118.128906 201.605469 118.550781 198.691406 C 118.972656 195.777344 119.535156 192.890625 120.242188 190.03125 C 120.945312 187.175781 121.789062 184.355469 122.773438 181.582031 Z M 122.601562 181.152344 " clip-rule="nonzero"/></clipPath><linearGradient x1="0.55469" gradientTransform="matrix(0.000000000000000526, 8.588993, -8.584601, 0.000000000000000526, 391.813505, -16.39483)" y1="20.642494" x2="30.950502" gradientUnits="userSpaceOnUse" y2="44.701585" id="854fcb5da3"><stop stop-opacity="1" stop-color="rgb(15.089417%, 22.377014%, 59.210205%)" offset="0"/><stop stop-opacity="1" stop-color="rgb(15.071106%, 22.348022%, 59.072876%)" offset="0.015625"/><stop stop-opacity="1" stop-color="rgb(15.034485%, 22.293091%, 58.796692%)" offset="0.03125"/><stop stop-opacity="1" stop-color="rgb(14.997864%, 22.236633%, 58.522034%)" offset="0.046875"/><stop stop-opacity="1" stop-color="rgb(14.962769%, 22.181702%, 58.247375%)" offset="0.0625"/><stop stop-opacity="1" stop-color="rgb(14.926147%, 22.125244%, 57.972717%)" offset="0.078125"/><stop stop-opacity="1" stop-color="rgb(14.889526%, 22.070312%, 57.696533%)" offset="0.09375"/><stop stop-opacity="1" stop-color="rgb(14.852905%, 22.013855%, 57.421875%)" offset="0.109375"/><stop stop-opacity="1" stop-color="rgb(14.816284%, 21.957397%, 57.147217%)" offset="0.125"/><stop stop-opacity="1" stop-color="rgb(14.781189%, 21.902466%, 56.872559%)" offset="0.140625"/><stop stop-opacity="1" stop-color="rgb(14.744568%, 21.846008%, 56.5979%)" offset="0.15625"/><stop stop-opacity="1" stop-color="rgb(14.707947%, 21.791077%, 56.321716%)" offset="0.171875"/><stop stop-opacity="1" stop-color="rgb(14.671326%, 21.734619%, 56.047058%)" offset="0.1875"/><stop stop-opacity="1" stop-color="rgb(14.634705%, 21.679688%, 55.7724%)" offset="0.203125"/><stop stop-opacity="1" stop-color="rgb(14.599609%, 21.62323%, 55.497742%)" offset="0.21875"/><stop stop-opacity="1" stop-color="rgb(14.562988%, 21.568298%, 55.221558%)" offset="0.234375"/><stop stop-opacity="1" stop-color="rgb(14.526367%, 21.511841%, 54.946899%)" offset="0.25"/><stop stop-opacity="1" stop-color="rgb(14.489746%, 21.455383%, 54.672241%)" offset="0.265625"/><stop stop-opacity="1" stop-color="rgb(14.453125%, 21.400452%, 54.397583%)" offset="0.28125"/><stop stop-opacity="1" stop-color="rgb(14.416504%, 21.343994%, 54.122925%)" offset="0.296875"/><stop stop-opacity="1" stop-color="rgb(14.381409%, 21.289062%, 53.846741%)" offset="0.3125"/><stop stop-opacity="1" stop-color="rgb(14.344788%, 21.232605%, 53.572083%)" offset="0.328125"/><stop stop-opacity="1" stop-color="rgb(14.308167%, 21.177673%, 53.297424%)" offset="0.34375"/><stop stop-opacity="1" stop-color="rgb(14.271545%, 21.121216%, 53.022766%)" offset="0.359375"/><stop stop-opacity="1" stop-color="rgb(14.234924%, 21.066284%, 52.746582%)" offset="0.375"/><stop stop-opacity="1" stop-color="rgb(14.199829%, 21.009827%, 52.471924%)" offset="0.390625"/><stop stop-opacity="1" stop-color="rgb(14.163208%, 20.953369%, 52.197266%)" offset="0.40625"/><stop stop-opacity="1" stop-color="rgb(14.126587%, 20.898438%, 51.922607%)" offset="0.421875"/><stop stop-opacity="1" stop-color="rgb(14.089966%, 20.84198%, 51.647949%)" offset="0.4375"/><stop stop-opacity="1" stop-color="rgb(14.053345%, 20.787048%, 51.371765%)" offset="0.441492"/><stop stop-opacity="1" stop-color="rgb(14.03656%, 20.759583%, 51.234436%)" offset="0.453125"/><stop stop-opacity="1" stop-color="rgb(14.01825%, 20.730591%, 51.097107%)" offset="0.46875"/><stop stop-opacity="1" stop-color="rgb(13.981628%, 20.675659%, 50.822449%)" offset="0.484375"/><stop stop-opacity="1" stop-color="rgb(13.945007%, 20.619202%, 50.547791%)" offset="0.5"/><stop stop-opacity="1" stop-color="rgb(13.908386%, 20.56427%, 50.271606%)" offset="0.515625"/><stop stop-opacity="1" stop-color="rgb(13.871765%, 20.507812%, 49.996948%)" offset="0.53125"/><stop stop-opacity="1" stop-color="rgb(13.83667%, 20.451355%, 49.72229%)" offset="0.546875"/><stop stop-opacity="1" stop-color="rgb(13.800049%, 20.396423%, 49.447632%)" offset="0.558508"/><stop stop-opacity="1" stop-color="rgb(13.781738%, 20.368958%, 49.310303%)" offset="0.5625"/><stop stop-opacity="1" stop-color="rgb(13.763428%, 20.339966%, 49.171448%)" offset="0.578125"/><stop stop-opacity="1" stop-color="rgb(13.726807%, 20.285034%, 48.89679%)" offset="0.59375"/><stop stop-opacity="1" stop-color="rgb(13.690186%, 20.228577%, 48.622131%)" offset="0.609375"/><stop stop-opacity="1" stop-color="rgb(13.65509%, 20.173645%, 48.347473%)" offset="0.625"/><stop stop-opacity="1" stop-color="rgb(13.618469%, 20.117188%, 48.072815%)" offset="0.640625"/><stop stop-opacity="1" stop-color="rgb(13.581848%, 20.062256%, 47.796631%)" offset="0.65625"/><stop stop-opacity="1" stop-color="rgb(13.545227%, 20.005798%, 47.521973%)" offset="0.671875"/><stop stop-opacity="1" stop-color="rgb(13.508606%, 19.949341%, 47.247314%)" offset="0.6875"/><stop stop-opacity="1" stop-color="rgb(13.473511%, 19.894409%, 46.972656%)" offset="0.703125"/><stop stop-opacity="1" stop-color="rgb(13.43689%, 19.837952%, 46.696472%)" offset="0.71875"/><stop stop-opacity="1" stop-color="rgb(13.400269%, 19.78302%, 46.421814%)" offset="0.734375"/><stop stop-opacity="1" stop-color="rgb(13.363647%, 19.726562%, 46.147156%)" offset="0.75"/><stop stop-opacity="1" stop-color="rgb(13.327026%, 19.671631%, 45.872498%)" offset="0.765625"/><stop stop-opacity="1" stop-color="rgb(13.291931%, 19.615173%, 45.597839%)" offset="0.78125"/><stop stop-opacity="1" stop-color="rgb(13.25531%, 19.560242%, 45.321655%)" offset="0.796875"/><stop stop-opacity="1" stop-color="rgb(13.218689%, 19.503784%, 45.046997%)" offset="0.8125"/><stop stop-opacity="1" stop-color="rgb(13.182068%, 19.447327%, 44.772339%)" offset="0.828125"/><stop stop-opacity="1" stop-color="rgb(13.145447%, 19.392395%, 44.497681%)" offset="0.84375"/><stop stop-opacity="1" stop-color="rgb(13.110352%, 19.335938%, 44.221497%)" offset="0.859375"/><stop stop-opacity="1" stop-color="rgb(13.07373%, 19.281006%, 43.946838%)" offset="0.875"/><stop stop-opacity="1" stop-color="rgb(13.037109%, 19.224548%, 43.67218%)" offset="0.890625"/><stop stop-opacity="1" stop-color="rgb(13.000488%, 19.169617%, 43.397522%)" offset="0.90625"/><stop stop-opacity="1" stop-color="rgb(12.963867%, 19.113159%, 43.122864%)" offset="0.921875"/><stop stop-opacity="1" stop-color="rgb(12.928772%, 19.058228%, 42.84668%)" offset="0.9375"/><stop stop-opacity="1" stop-color="rgb(12.892151%, 19.00177%, 42.572021%)" offset="0.953125"/><stop stop-opacity="1" stop-color="rgb(12.85553%, 18.945312%, 42.297363%)" offset="0.96875"/><stop stop-opacity="1" stop-color="rgb(12.818909%, 18.890381%, 42.022705%)" offset="0.984375"/><stop stop-opacity="1" stop-color="rgb(12.782288%, 18.833923%, 41.746521%)" offset="1"/></linearGradient><clipPath id="d222844126"><path d="M 122 126 L 204 126 L 204 208 L 122 208 Z M 122 126 " clip-rule="nonzero"/></clipPath><clipPath id="52e566b0a0"><path d="M 203.46875 173.164062 L 203.46875 169.128906 C 203.46875 166.589844 203.222656 164.078125 202.730469 161.585938 C 202.234375 159.097656 201.5 156.683594 200.527344 154.339844 C 199.554688 151.996094 198.363281 149.769531 196.953125 147.660156 C 195.539062 145.554688 193.933594 143.605469 192.136719 141.8125 L 177.199219 126.527344 C 174.058594 127.632812 170.988281 128.910156 167.988281 130.363281 C 164.992188 131.8125 162.082031 133.425781 159.265625 135.199219 C 156.449219 136.976562 153.738281 138.902344 151.132812 140.984375 C 148.53125 143.0625 146.054688 145.277344 143.699219 147.636719 C 141.34375 149.992188 139.128906 152.472656 137.050781 155.074219 C 134.972656 157.679688 133.046875 160.390625 131.269531 163.210938 C 129.496094 166.027344 127.882812 168.9375 126.433594 171.9375 C 124.984375 174.9375 123.707031 178.007812 122.601562 181.152344 L 137.882812 196.441406 C 139.925781 198.453125 142.167969 200.214844 144.605469 201.726562 C 147.042969 203.242188 149.613281 204.472656 152.324219 205.414062 C 155.03125 206.355469 157.8125 206.992188 160.664062 207.316406 C 163.511719 207.644531 166.363281 207.65625 169.214844 207.347656 C 169.308594 206.25 169.449219 205.160156 169.640625 204.078125 C 169.828125 202.992188 170.0625 201.917969 170.347656 200.855469 C 170.628906 199.792969 170.960938 198.742188 171.335938 197.707031 C 171.710938 196.671875 172.128906 195.65625 172.59375 194.660156 C 173.058594 193.660156 173.5625 192.6875 174.113281 191.730469 C 174.664062 190.777344 175.253906 189.851562 175.882812 188.949219 C 176.511719 188.046875 177.183594 187.175781 177.890625 186.332031 C 178.59375 185.488281 179.339844 184.675781 180.117188 183.898438 C 180.894531 183.121094 181.703125 182.378906 182.546875 181.671875 C 183.390625 180.964844 184.261719 180.292969 185.164062 179.664062 C 186.066406 179.03125 186.992188 178.441406 187.945312 177.894531 C 188.898438 177.34375 189.875 176.835938 190.871094 176.371094 C 191.867188 175.910156 192.882812 175.488281 193.917969 175.113281 C 194.953125 174.738281 196 174.410156 197.0625 174.125 C 198.125 173.84375 199.199219 173.605469 200.285156 173.417969 C 201.367188 173.226562 202.457031 173.085938 203.554688 172.992188 Z M 203.46875 173.164062 " clip-rule="nonzero"/></clipPath><linearGradient x1="27.006085" gradientTransform="matrix(0.000000000000000526, 8.588993, -8.584601, 0.000000000000000526, 391.813505, -16.39483)" y1="30.060085" x2="16.267362" gradientUnits="userSpaceOnUse" y2="22.456269" id="dfc69e042a"><stop stop-opacity="1" stop-color="rgb(95.298767%, 63.075256%, 43.034363%)" offset="0"/><stop stop-opacity="1" stop-color="rgb(95.298767%, 62.974548%, 43.000793%)" offset="0.03125"/><stop stop-opacity="1" stop-color="rgb(95.298767%, 62.774658%, 42.933655%)" offset="0.0625"/><stop stop-opacity="1" stop-color="rgb(95.298767%, 62.576294%, 42.866516%)" offset="0.09375"/><stop stop-opacity="1" stop-color="rgb(95.298767%, 62.376404%, 42.799377%)" offset="0.125"/><stop stop-opacity="1" stop-color="rgb(95.298767%, 62.176514%, 42.732239%)" offset="0.15625"/><stop stop-opacity="1" stop-color="rgb(95.298767%, 61.976624%, 42.666626%)" offset="0.1875"/><stop stop-opacity="1" stop-color="rgb(95.298767%, 61.778259%, 42.599487%)" offset="0.21875"/><stop stop-opacity="1" stop-color="rgb(95.298767%, 61.578369%, 42.532349%)" offset="0.25"/><stop stop-opacity="1" stop-color="rgb(95.298767%, 61.378479%, 42.46521%)" offset="0.28125"/><stop stop-opacity="1" stop-color="rgb(95.298767%, 61.178589%, 42.398071%)" offset="0.3125"/><stop stop-opacity="1" stop-color="rgb(95.298767%, 60.980225%, 42.332458%)" offset="0.34375"/><stop stop-opacity="1" stop-color="rgb(95.298767%, 60.780334%, 42.26532%)" offset="0.375"/><stop stop-opacity="1" stop-color="rgb(95.298767%, 60.580444%, 42.198181%)" offset="0.40625"/><stop stop-opacity="1" stop-color="rgb(95.298767%, 60.380554%, 42.131042%)" offset="0.414143"/><stop stop-opacity="1" stop-color="rgb(95.298767%, 60.281372%, 42.097473%)" offset="0.4375"/><stop stop-opacity="1" stop-color="rgb(95.298767%, 60.180664%, 42.063904%)" offset="0.46875"/><stop stop-opacity="1" stop-color="rgb(95.298767%, 59.9823%, 41.996765%)" offset="0.5"/><stop stop-opacity="1" stop-color="rgb(95.298767%, 59.78241%, 41.931152%)" offset="0.53125"/><stop stop-opacity="1" stop-color="rgb(95.298767%, 59.58252%, 41.864014%)" offset="0.5625"/><stop stop-opacity="1" stop-color="rgb(95.298767%, 59.382629%, 41.796875%)" offset="0.585857"/><stop stop-opacity="1" stop-color="rgb(95.298767%, 59.283447%, 41.763306%)" offset="0.59375"/><stop stop-opacity="1" stop-color="rgb(95.298767%, 59.184265%, 41.729736%)" offset="0.625"/><stop stop-opacity="1" stop-color="rgb(95.298767%, 58.984375%, 41.662598%)" offset="0.65625"/><stop stop-opacity="1" stop-color="rgb(95.298767%, 58.784485%, 41.596985%)" offset="0.6875"/><stop stop-opacity="1" stop-color="rgb(95.298767%, 58.584595%, 41.529846%)" offset="0.71875"/><stop stop-opacity="1" stop-color="rgb(95.298767%, 58.38623%, 41.462708%)" offset="0.75"/><stop stop-opacity="1" stop-color="rgb(95.298767%, 58.18634%, 41.395569%)" offset="0.78125"/><stop stop-opacity="1" stop-color="rgb(95.298767%, 57.98645%, 41.32843%)" offset="0.8125"/><stop stop-opacity="1" stop-color="rgb(95.298767%, 57.78656%, 41.262817%)" offset="0.84375"/><stop stop-opacity="1" stop-color="rgb(95.288086%, 57.563782%, 41.210938%)" offset="0.875"/><stop stop-opacity="1" stop-color="rgb(95.259094%, 57.296753%, 41.189575%)" offset="0.90625"/><stop stop-opacity="1" stop-color="rgb(95.220947%, 57.011414%, 41.181946%)" offset="0.9375"/><stop stop-opacity="1" stop-color="rgb(95.1828%, 56.724548%, 41.174316%)" offset="0.96875"/><stop stop-opacity="1" stop-color="rgb(95.144653%, 56.439209%, 41.166687%)" offset="1"/></linearGradient><clipPath id="bbe1500dba"><path d="M 126 130 L 367 130 L 367 370.96875 L 126 370.96875 Z M 126 130 " clip-rule="nonzero"/></clipPath><clipPath id="8826457f46"><path d="M 339.703125 343.65625 C 340.746094 342.613281 341.761719 341.542969 342.75 340.449219 C 343.742188 339.355469 344.703125 338.242188 345.636719 337.101562 C 346.570312 335.960938 347.476562 334.796875 348.355469 333.613281 C 349.230469 332.425781 350.082031 331.222656 350.898438 329.996094 C 351.71875 328.769531 352.503906 327.523438 353.261719 326.257812 C 354.019531 324.992188 354.746094 323.707031 355.4375 322.40625 C 356.132812 321.105469 356.796875 319.789062 357.425781 318.457031 C 358.054688 317.121094 358.652344 315.773438 359.214844 314.410156 C 359.777344 313.050781 360.308594 311.671875 360.804688 310.285156 C 361.300781 308.894531 361.761719 307.496094 362.191406 306.085938 C 362.617188 304.671875 363.011719 303.253906 363.367188 301.820312 C 363.726562 300.390625 364.050781 298.953125 364.335938 297.503906 C 364.625 296.058594 364.875 294.605469 365.09375 293.148438 C 365.308594 291.6875 365.488281 290.226562 365.632812 288.757812 C 365.777344 287.289062 365.886719 285.820312 365.957031 284.347656 C 366.03125 282.875 366.066406 281.398438 366.066406 279.925781 C 366.066406 278.449219 366.03125 276.976562 365.957031 275.503906 C 365.886719 274.03125 365.777344 272.558594 365.632812 271.09375 C 365.488281 269.625 365.308594 268.160156 365.09375 266.703125 C 364.875 265.246094 364.625 263.792969 364.335938 262.34375 C 364.050781 260.898438 363.726562 259.460938 363.367188 258.03125 C 363.011719 256.597656 362.617188 255.179688 362.191406 253.765625 C 361.761719 252.355469 361.300781 250.953125 360.804688 249.566406 C 360.308594 248.175781 359.777344 246.800781 359.214844 245.4375 C 358.652344 244.078125 358.054688 242.730469 357.425781 241.394531 C 356.796875 240.0625 356.132812 238.746094 355.4375 237.445312 C 354.746094 236.144531 354.019531 234.859375 353.261719 233.59375 C 352.503906 232.328125 351.71875 231.082031 350.898438 229.855469 C 350.082031 228.628906 349.230469 227.425781 348.355469 226.238281 C 347.476562 225.054688 346.570312 223.890625 345.636719 222.75 C 344.703125 221.609375 343.742188 220.492188 342.75 219.398438 C 341.761719 218.308594 340.746094 217.238281 339.703125 216.195312 L 271.027344 147.484375 C 263.726562 140.355469 255.457031 134.628906 246.21875 130.304688 C 247.496094 132.984375 248.636719 135.714844 249.644531 138.507812 C 250.652344 141.296875 251.519531 144.128906 252.25 147.003906 C 252.980469 149.878906 253.566406 152.785156 254.007812 155.714844 C 254.453125 158.648438 254.753906 161.597656 254.90625 164.558594 C 255.0625 167.523438 255.070312 170.484375 254.933594 173.449219 C 254.796875 176.410156 254.515625 179.359375 254.085938 182.296875 C 253.660156 185.230469 253.089844 188.140625 252.378906 191.019531 C 251.667969 193.898438 250.816406 196.738281 249.824219 199.53125 L 303.046875 252.785156 C 303.890625 253.691406 304.691406 254.632812 305.441406 255.613281 C 306.195312 256.597656 306.898438 257.613281 307.554688 258.664062 C 308.207031 259.710938 308.8125 260.789062 309.363281 261.898438 C 309.914062 263.003906 310.410156 264.136719 310.855469 265.292969 C 311.296875 266.449219 311.683594 267.621094 312.015625 268.8125 C 312.34375 270.007812 312.617188 271.210938 312.832031 272.429688 C 313.046875 273.648438 313.203125 274.875 313.296875 276.109375 C 313.394531 277.34375 313.433594 278.578125 313.410156 279.816406 C 313.390625 281.050781 313.308594 282.285156 313.167969 283.515625 C 313.027344 284.746094 312.828125 285.964844 312.570312 287.175781 C 312.3125 288.382812 312 289.578125 311.628906 290.761719 C 311.253906 291.941406 310.828125 293.097656 310.34375 294.238281 C 309.859375 295.378906 309.324219 296.492188 308.734375 297.578125 C 308.144531 298.664062 307.503906 299.722656 306.8125 300.746094 C 306.121094 301.773438 305.378906 302.765625 304.59375 303.71875 C 303.808594 304.671875 302.976562 305.589844 302.101562 306.464844 C 301.226562 307.339844 300.3125 308.167969 299.359375 308.957031 C 298.40625 309.742188 297.414062 310.484375 296.390625 311.175781 C 295.363281 311.867188 294.308594 312.507812 293.222656 313.097656 C 292.132812 313.6875 291.023438 314.226562 289.882812 314.710938 C 288.746094 315.191406 287.585938 315.621094 286.40625 315.992188 C 285.226562 316.367188 284.03125 316.679688 282.824219 316.9375 C 281.613281 317.195312 280.394531 317.394531 279.164062 317.535156 C 277.9375 317.675781 276.703125 317.753906 275.46875 317.777344 C 274.230469 317.800781 272.996094 317.761719 271.761719 317.664062 C 270.53125 317.566406 269.304688 317.414062 268.085938 317.199219 C 266.867188 316.984375 265.664062 316.710938 264.472656 316.378906 C 263.28125 316.050781 262.105469 315.664062 260.953125 315.21875 C 259.796875 314.777344 258.667969 314.28125 257.558594 313.726562 C 256.453125 313.175781 255.375 312.574219 254.324219 311.917969 C 253.277344 311.261719 252.261719 310.558594 251.28125 309.804688 C 250.296875 309.050781 249.355469 308.253906 248.449219 307.410156 L 195.226562 254.160156 C 192.433594 255.148438 189.59375 256.003906 186.71875 256.714844 C 183.839844 257.425781 180.933594 257.996094 178 258.425781 C 175.066406 258.851562 172.117188 259.132812 169.15625 259.269531 C 166.195312 259.40625 163.230469 259.398438 160.269531 259.242188 C 157.308594 259.089844 154.363281 258.789062 151.433594 258.347656 C 148.5 257.902344 145.597656 257.316406 142.726562 256.585938 C 139.851562 255.855469 137.019531 254.988281 134.230469 253.976562 C 131.441406 252.96875 128.710938 251.828125 126.035156 250.550781 C 130.359375 259.792969 136.082031 268.066406 143.203125 275.375 L 211.878906 344.085938 C 212.929688 345.128906 214 346.148438 215.101562 347.140625 C 216.199219 348.132812 217.320312 349.097656 218.464844 350.035156 C 219.613281 350.972656 220.78125 351.882812 221.96875 352.761719 C 223.160156 353.640625 224.371094 354.492188 225.605469 355.3125 C 226.835938 356.132812 228.085938 356.921875 229.359375 357.679688 C 230.628906 358.4375 231.917969 359.164062 233.226562 359.859375 C 234.53125 360.554688 235.855469 361.21875 237.195312 361.847656 C 238.535156 362.480469 239.886719 363.074219 241.257812 363.636719 C 242.625 364.203125 244.007812 364.730469 245.402344 365.226562 C 246.796875 365.722656 248.203125 366.183594 249.621094 366.609375 C 251.039062 367.035156 252.464844 367.425781 253.902344 367.78125 C 255.335938 368.136719 256.78125 368.457031 258.234375 368.742188 C 259.6875 369.027344 261.144531 369.273438 262.609375 369.488281 C 264.074219 369.699219 265.542969 369.878906 267.015625 370.019531 C 268.488281 370.160156 269.964844 370.261719 271.445312 370.332031 C 272.921875 370.398438 274.402344 370.429688 275.882812 370.425781 C 277.363281 370.417969 278.839844 370.378906 280.320312 370.300781 C 281.796875 370.222656 283.273438 370.109375 284.742188 369.957031 C 286.214844 369.808594 287.683594 369.621094 289.148438 369.398438 C 290.609375 369.175781 292.066406 368.917969 293.515625 368.621094 C 294.96875 368.328125 296.410156 368 297.84375 367.632812 C 299.277344 367.269531 300.703125 366.867188 302.117188 366.433594 C 303.53125 365.996094 304.933594 365.527344 306.328125 365.023438 C 307.71875 364.515625 309.097656 363.976562 310.460938 363.40625 C 311.824219 362.832031 313.175781 362.226562 314.511719 361.589844 C 315.84375 360.949219 317.164062 360.277344 318.464844 359.574219 C 319.769531 358.871094 321.050781 358.136719 322.316406 357.367188 C 323.585938 356.601562 324.832031 355.804688 326.058594 354.976562 C 327.285156 354.148438 328.488281 353.289062 329.671875 352.402344 C 330.859375 351.511719 332.019531 350.597656 333.160156 349.652344 C 334.300781 348.707031 335.414062 347.734375 336.507812 346.734375 C 337.597656 345.734375 338.664062 344.707031 339.703125 343.65625 Z M 339.703125 343.65625 " clip-rule="nonzero"/></clipPath><linearGradient x1="48.100143" gradientTransform="matrix(0.000000000000000526, 8.588993, -8.584601, 0.000000000000000526, 391.813505, -16.39483)" y1="26.634325" x2="16.292153" gradientUnits="userSpaceOnUse" y2="4.111898" id="c134ba9ec2"><stop stop-opacity="1" stop-color="rgb(95.298767%, 70.46814%, 45.510864%)" offset="0"/><stop stop-opacity="1" stop-color="rgb(95.298767%, 70.320129%, 45.46051%)" offset="0.015625"/><stop stop-opacity="1" stop-color="rgb(95.298767%, 70.024109%, 45.361328%)" offset="0.03125"/><stop stop-opacity="1" stop-color="rgb(95.298767%, 69.728088%, 45.262146%)" offset="0.046875"/><stop stop-opacity="1" stop-color="rgb(95.298767%, 69.433594%, 45.162964%)" offset="0.0625"/><stop stop-opacity="1" stop-color="rgb(95.298767%, 69.137573%, 45.063782%)" offset="0.078125"/><stop stop-opacity="1" stop-color="rgb(95.298767%, 68.843079%, 44.966125%)" offset="0.09375"/><stop stop-opacity="1" stop-color="rgb(95.298767%, 68.547058%, 44.866943%)" offset="0.109375"/><stop stop-opacity="1" stop-color="rgb(95.298767%, 68.251038%, 44.767761%)" offset="0.125"/><stop stop-opacity="1" stop-color="rgb(95.298767%, 67.956543%, 44.668579%)" offset="0.140625"/><stop stop-opacity="1" stop-color="rgb(95.298767%, 67.660522%, 44.569397%)" offset="0.15625"/><stop stop-opacity="1" stop-color="rgb(95.298767%, 67.364502%, 44.470215%)" offset="0.171875"/><stop stop-opacity="1" stop-color="rgb(95.298767%, 67.070007%, 44.371033%)" offset="0.1875"/><stop stop-opacity="1" stop-color="rgb(95.298767%, 66.773987%, 44.271851%)" offset="0.203125"/><stop stop-opacity="1" stop-color="rgb(95.298767%, 66.477966%, 44.172668%)" offset="0.21875"/><stop stop-opacity="1" stop-color="rgb(95.298767%, 66.183472%, 44.075012%)" offset="0.234375"/><stop stop-opacity="1" stop-color="rgb(95.298767%, 65.887451%, 43.97583%)" offset="0.25"/><stop stop-opacity="1" stop-color="rgb(95.298767%, 65.591431%, 43.876648%)" offset="0.265625"/><stop stop-opacity="1" stop-color="rgb(95.298767%, 65.296936%, 43.777466%)" offset="0.28125"/><stop stop-opacity="1" stop-color="rgb(95.298767%, 65.000916%, 43.678284%)" offset="0.296875"/><stop stop-opacity="1" stop-color="rgb(95.298767%, 64.704895%, 43.579102%)" offset="0.3125"/><stop stop-opacity="1" stop-color="rgb(95.298767%, 64.4104%, 43.479919%)" offset="0.328125"/><stop stop-opacity="1" stop-color="rgb(95.298767%, 64.11438%, 43.380737%)" offset="0.34375"/><stop stop-opacity="1" stop-color="rgb(95.298767%, 63.818359%, 43.283081%)" offset="0.359375"/><stop stop-opacity="1" stop-color="rgb(95.298767%, 63.523865%, 43.183899%)" offset="0.375"/><stop stop-opacity="1" stop-color="rgb(95.298767%, 63.227844%, 43.084717%)" offset="0.390625"/><stop stop-opacity="1" stop-color="rgb(95.298767%, 62.931824%, 42.985535%)" offset="0.40625"/><stop stop-opacity="1" stop-color="rgb(95.298767%, 62.637329%, 42.886353%)" offset="0.414576"/><stop stop-opacity="1" stop-color="rgb(95.298767%, 62.489319%, 42.837524%)" offset="0.421875"/><stop stop-opacity="1" stop-color="rgb(95.298767%, 62.341309%, 42.78717%)" offset="0.4375"/><stop stop-opacity="1" stop-color="rgb(95.298767%, 62.045288%, 42.687988%)" offset="0.453125"/><stop stop-opacity="1" stop-color="rgb(95.298767%, 61.750793%, 42.588806%)" offset="0.46875"/><stop stop-opacity="1" stop-color="rgb(95.298767%, 61.454773%, 42.49115%)" offset="0.484375"/><stop stop-opacity="1" stop-color="rgb(95.298767%, 61.158752%, 42.391968%)" offset="0.5"/><stop stop-opacity="1" stop-color="rgb(95.298767%, 60.864258%, 42.292786%)" offset="0.515625"/><stop stop-opacity="1" stop-color="rgb(95.298767%, 60.568237%, 42.193604%)" offset="0.53125"/><stop stop-opacity="1" stop-color="rgb(95.298767%, 60.272217%, 42.094421%)" offset="0.546875"/><stop stop-opacity="1" stop-color="rgb(95.298767%, 59.977722%, 41.995239%)" offset="0.5625"/><stop stop-opacity="1" stop-color="rgb(95.298767%, 59.681702%, 41.896057%)" offset="0.578125"/><stop stop-opacity="1" stop-color="rgb(95.298767%, 59.387207%, 41.796875%)" offset="0.585424"/><stop stop-opacity="1" stop-color="rgb(95.298767%, 59.239197%, 41.748047%)" offset="0.59375"/><stop stop-opacity="1" stop-color="rgb(95.298767%, 59.091187%, 41.697693%)" offset="0.609375"/><stop stop-opacity="1" stop-color="rgb(95.298767%, 58.795166%, 41.600037%)" offset="0.625"/><stop stop-opacity="1" stop-color="rgb(95.298767%, 58.500671%, 41.500854%)" offset="0.640625"/><stop stop-opacity="1" stop-color="rgb(95.298767%, 58.204651%, 41.401672%)" offset="0.65625"/><stop stop-opacity="1" stop-color="rgb(95.298767%, 57.90863%, 41.30249%)" offset="0.671875"/><stop stop-opacity="1" stop-color="rgb(95.28656%, 57.585144%, 41.223145%)" offset="0.6875"/><stop stop-opacity="1" stop-color="rgb(95.259094%, 57.301331%, 41.191101%)" offset="0.695312"/><stop stop-opacity="1" stop-color="rgb(95.231628%, 57.089233%, 41.184998%)" offset="0.703125"/><stop stop-opacity="1" stop-color="rgb(95.202637%, 56.878662%, 41.178894%)" offset="0.710938"/><stop stop-opacity="1" stop-color="rgb(95.175171%, 56.666565%, 41.174316%)" offset="0.71875"/><stop stop-opacity="1" stop-color="rgb(95.147705%, 56.454468%, 41.168213%)" offset="0.726562"/><stop stop-opacity="1" stop-color="rgb(95.118713%, 56.242371%, 41.162109%)" offset="0.734375"/><stop stop-opacity="1" stop-color="rgb(95.091248%, 56.030273%, 41.156006%)" offset="0.742188"/><stop stop-opacity="1" stop-color="rgb(95.062256%, 55.818176%, 41.149902%)" offset="0.75"/><stop stop-opacity="1" stop-color="rgb(95.03479%, 55.607605%, 41.145325%)" offset="0.757812"/><stop stop-opacity="1" stop-color="rgb(95.007324%, 55.395508%, 41.139221%)" offset="0.765625"/><stop stop-opacity="1" stop-color="rgb(94.978333%, 55.183411%, 41.133118%)" offset="0.773438"/><stop stop-opacity="1" stop-color="rgb(94.950867%, 54.971313%, 41.127014%)" offset="0.78125"/><stop stop-opacity="1" stop-color="rgb(94.921875%, 54.759216%, 41.122437%)" offset="0.789062"/><stop stop-opacity="1" stop-color="rgb(94.894409%, 54.547119%, 41.116333%)" offset="0.796875"/><stop stop-opacity="1" stop-color="rgb(94.865417%, 54.335022%, 41.110229%)" offset="0.804688"/><stop stop-opacity="1" stop-color="rgb(94.837952%, 54.124451%, 41.104126%)" offset="0.8125"/><stop stop-opacity="1" stop-color="rgb(94.810486%, 53.912354%, 41.098022%)" offset="0.820312"/><stop stop-opacity="1" stop-color="rgb(94.781494%, 53.700256%, 41.093445%)" offset="0.828125"/><stop stop-opacity="1" stop-color="rgb(94.754028%, 53.488159%, 41.087341%)" offset="0.835938"/><stop stop-opacity="1" stop-color="rgb(94.725037%, 53.276062%, 41.081238%)" offset="0.84375"/><stop stop-opacity="1" stop-color="rgb(94.697571%, 53.063965%, 41.075134%)" offset="0.851562"/><stop stop-opacity="1" stop-color="rgb(94.670105%, 52.853394%, 41.070557%)" offset="0.859375"/><stop stop-opacity="1" stop-color="rgb(94.641113%, 52.641296%, 41.064453%)" offset="0.867188"/><stop stop-opacity="1" stop-color="rgb(94.613647%, 52.429199%, 41.05835%)" offset="0.875"/><stop stop-opacity="1" stop-color="rgb(94.584656%, 52.217102%, 41.052246%)" offset="0.882813"/><stop stop-opacity="1" stop-color="rgb(94.55719%, 52.005005%, 41.046143%)" offset="0.890625"/><stop stop-opacity="1" stop-color="rgb(94.528198%, 51.792908%, 41.041565%)" offset="0.898438"/><stop stop-opacity="1" stop-color="rgb(94.500732%, 51.582336%, 41.035461%)" offset="0.90625"/><stop stop-opacity="1" stop-color="rgb(94.473267%, 51.370239%, 41.029358%)" offset="0.914062"/><stop stop-opacity="1" stop-color="rgb(94.444275%, 51.158142%, 41.023254%)" offset="0.921875"/><stop stop-opacity="1" stop-color="rgb(94.416809%, 50.946045%, 41.018677%)" offset="0.929688"/><stop stop-opacity="1" stop-color="rgb(94.387817%, 50.733948%, 41.012573%)" offset="0.9375"/><stop stop-opacity="1" stop-color="rgb(94.360352%, 50.521851%, 41.00647%)" offset="0.945312"/><stop stop-opacity="1" stop-color="rgb(94.332886%, 50.311279%, 41.000366%)" offset="0.953125"/><stop stop-opacity="1" stop-color="rgb(94.303894%, 50.099182%, 40.994263%)" offset="0.960938"/><stop stop-opacity="1" stop-color="rgb(94.276428%, 49.887085%, 40.989685%)" offset="0.96875"/><stop stop-opacity="1" stop-color="rgb(94.247437%, 49.674988%, 40.983582%)" offset="0.976563"/><stop stop-opacity="1" stop-color="rgb(94.219971%, 49.462891%, 40.977478%)" offset="0.984375"/><stop stop-opacity="1" stop-color="rgb(94.190979%, 49.250793%, 40.971375%)" offset="0.992188"/><stop stop-opacity="1" stop-color="rgb(94.163513%, 49.040222%, 40.966797%)" offset="1"/></linearGradient><clipPath id="596d10a541"><path d="M 177 121 L 256 121 L 256 200 L 177 200 Z M 177 121 " clip-rule="nonzero"/></clipPath><clipPath id="129e32c31a"><path d="M 177.199219 126.527344 L 192.394531 141.8125 C 194.199219 143.601562 195.8125 145.546875 197.230469 147.652344 C 198.652344 149.757812 199.851562 151.984375 200.832031 154.328125 C 201.8125 156.671875 202.554688 159.089844 203.054688 161.582031 C 203.554688 164.070312 203.808594 166.585938 203.8125 169.128906 L 203.8125 173.164062 C 206.664062 172.859375 209.511719 172.867188 212.363281 173.195312 C 215.214844 173.519531 217.992188 174.15625 220.703125 175.097656 C 223.410156 176.042969 225.984375 177.269531 228.421875 178.785156 C 230.855469 180.296875 233.097656 182.0625 235.144531 184.070312 L 250.339844 199.359375 C 251.332031 196.566406 252.183594 193.726562 252.894531 190.847656 C 253.605469 187.96875 254.175781 185.058594 254.601562 182.125 C 255.03125 179.1875 255.3125 176.238281 255.449219 173.277344 C 255.585938 170.3125 255.574219 167.351562 255.421875 164.386719 C 255.265625 161.425781 254.96875 158.476562 254.523438 155.542969 C 254.082031 152.613281 253.492188 149.707031 252.765625 146.832031 C 252.035156 143.957031 251.167969 141.125 250.160156 138.335938 C 249.152344 135.542969 248.011719 132.8125 246.734375 130.132812 C 244.078125 128.867188 241.367188 127.730469 238.597656 126.730469 C 235.832031 125.730469 233.019531 124.867188 230.167969 124.140625 C 227.316406 123.417969 224.4375 122.832031 221.527344 122.390625 C 218.617188 121.949219 215.691406 121.652344 212.753906 121.5 C 209.816406 121.34375 206.875 121.332031 203.9375 121.46875 C 200.996094 121.601562 198.070312 121.882812 195.15625 122.304688 C 192.246094 122.726562 189.359375 123.289062 186.503906 123.996094 C 183.648438 124.699219 180.832031 125.542969 178.058594 126.527344 Z M 177.199219 126.527344 " clip-rule="nonzero"/></clipPath><linearGradient x1="25.707491" gradientTransform="matrix(0.000000000000000526, 8.588993, -8.584601, 0.000000000000000526, 391.813505, -16.39483)" y1="24.168916" x2="15.345959" gradientUnits="userSpaceOnUse" y2="16.844385" id="191b606eea"><stop stop-opacity="1" stop-color="rgb(94.474792%, 51.387024%, 41.030884%)" offset="0"/><stop stop-opacity="1" stop-color="rgb(94.46106%, 51.280212%, 41.027832%)" offset="0.015625"/><stop stop-opacity="1" stop-color="rgb(94.432068%, 51.065063%, 41.021729%)" offset="0.03125"/><stop stop-opacity="1" stop-color="rgb(94.403076%, 50.849915%, 41.015625%)" offset="0.046875"/><stop stop-opacity="1" stop-color="rgb(94.37561%, 50.636292%, 41.009521%)" offset="0.0625"/><stop stop-opacity="1" stop-color="rgb(94.346619%, 50.421143%, 41.003418%)" offset="0.078125"/><stop stop-opacity="1" stop-color="rgb(94.317627%, 50.20752%, 40.997314%)" offset="0.09375"/><stop stop-opacity="1" stop-color="rgb(94.290161%, 49.992371%, 40.992737%)" offset="0.109375"/><stop stop-opacity="1" stop-color="rgb(94.261169%, 49.777222%, 40.986633%)" offset="0.125"/><stop stop-opacity="1" stop-color="rgb(94.232178%, 49.563599%, 40.98053%)" offset="0.140625"/><stop stop-opacity="1" stop-color="rgb(94.204712%, 49.34845%, 40.974426%)" offset="0.15625"/><stop stop-opacity="1" stop-color="rgb(94.17572%, 49.133301%, 40.968323%)" offset="0.171875"/><stop stop-opacity="1" stop-color="rgb(94.146729%, 48.919678%, 40.962219%)" offset="0.1875"/><stop stop-opacity="1" stop-color="rgb(94.119263%, 48.704529%, 40.957642%)" offset="0.203125"/><stop stop-opacity="1" stop-color="rgb(94.090271%, 48.490906%, 40.951538%)" offset="0.21875"/><stop stop-opacity="1" stop-color="rgb(94.061279%, 48.275757%, 40.945435%)" offset="0.234375"/><stop stop-opacity="1" stop-color="rgb(94.033813%, 48.060608%, 40.939331%)" offset="0.25"/><stop stop-opacity="1" stop-color="rgb(94.004822%, 47.846985%, 40.933228%)" offset="0.265625"/><stop stop-opacity="1" stop-color="rgb(93.977356%, 47.631836%, 40.92865%)" offset="0.28125"/><stop stop-opacity="1" stop-color="rgb(93.948364%, 47.418213%, 40.922546%)" offset="0.296875"/><stop stop-opacity="1" stop-color="rgb(93.919373%, 47.203064%, 40.916443%)" offset="0.3125"/><stop stop-opacity="1" stop-color="rgb(93.891907%, 46.987915%, 40.910339%)" offset="0.328125"/><stop stop-opacity="1" stop-color="rgb(93.862915%, 46.774292%, 40.904236%)" offset="0.34375"/><stop stop-opacity="1" stop-color="rgb(93.833923%, 46.559143%, 40.898132%)" offset="0.359375"/><stop stop-opacity="1" stop-color="rgb(93.806458%, 46.34552%, 40.893555%)" offset="0.375"/><stop stop-opacity="1" stop-color="rgb(93.777466%, 46.130371%, 40.887451%)" offset="0.390625"/><stop stop-opacity="1" stop-color="rgb(93.748474%, 45.915222%, 40.881348%)" offset="0.40625"/><stop stop-opacity="1" stop-color="rgb(93.721008%, 45.701599%, 40.875244%)" offset="0.415381"/><stop stop-opacity="1" stop-color="rgb(93.707275%, 45.594788%, 40.872192%)" offset="0.421875"/><stop stop-opacity="1" stop-color="rgb(93.692017%, 45.48645%, 40.869141%)" offset="0.4375"/><stop stop-opacity="1" stop-color="rgb(93.663025%, 45.272827%, 40.863037%)" offset="0.453125"/><stop stop-opacity="1" stop-color="rgb(93.635559%, 45.057678%, 40.858459%)" offset="0.46875"/><stop stop-opacity="1" stop-color="rgb(93.606567%, 44.842529%, 40.852356%)" offset="0.484375"/><stop stop-opacity="1" stop-color="rgb(93.577576%, 44.628906%, 40.846252%)" offset="0.5"/><stop stop-opacity="1" stop-color="rgb(93.55011%, 44.413757%, 40.840149%)" offset="0.515625"/><stop stop-opacity="1" stop-color="rgb(93.521118%, 44.198608%, 40.834045%)" offset="0.53125"/><stop stop-opacity="1" stop-color="rgb(93.492126%, 43.984985%, 40.827942%)" offset="0.546875"/><stop stop-opacity="1" stop-color="rgb(93.464661%, 43.769836%, 40.823364%)" offset="0.5625"/><stop stop-opacity="1" stop-color="rgb(93.435669%, 43.556213%, 40.817261%)" offset="0.578125"/><stop stop-opacity="1" stop-color="rgb(93.406677%, 43.341064%, 40.811157%)" offset="0.584619"/><stop stop-opacity="1" stop-color="rgb(93.392944%, 43.234253%, 40.808105%)" offset="0.59375"/><stop stop-opacity="1" stop-color="rgb(93.379211%, 43.125916%, 40.805054%)" offset="0.609375"/><stop stop-opacity="1" stop-color="rgb(93.35022%, 42.912292%, 40.79895%)" offset="0.625"/><stop stop-opacity="1" stop-color="rgb(93.322754%, 42.697144%, 40.794373%)" offset="0.640625"/><stop stop-opacity="1" stop-color="rgb(93.293762%, 42.483521%, 40.788269%)" offset="0.65625"/><stop stop-opacity="1" stop-color="rgb(93.264771%, 42.268372%, 40.782166%)" offset="0.671875"/><stop stop-opacity="1" stop-color="rgb(93.237305%, 42.053223%, 40.776062%)" offset="0.6875"/><stop stop-opacity="1" stop-color="rgb(93.208313%, 41.8396%, 40.769958%)" offset="0.703125"/><stop stop-opacity="1" stop-color="rgb(93.179321%, 41.624451%, 40.763855%)" offset="0.71875"/><stop stop-opacity="1" stop-color="rgb(93.151855%, 41.410828%, 40.759277%)" offset="0.734375"/><stop stop-opacity="1" stop-color="rgb(93.122864%, 41.195679%, 40.753174%)" offset="0.75"/><stop stop-opacity="1" stop-color="rgb(93.093872%, 40.98053%, 40.74707%)" offset="0.765625"/><stop stop-opacity="1" stop-color="rgb(93.066406%, 40.766907%, 40.740967%)" offset="0.78125"/><stop stop-opacity="1" stop-color="rgb(93.037415%, 40.551758%, 40.734863%)" offset="0.796875"/><stop stop-opacity="1" stop-color="rgb(93.008423%, 40.338135%, 40.72876%)" offset="0.8125"/><stop stop-opacity="1" stop-color="rgb(92.980957%, 40.122986%, 40.724182%)" offset="0.828125"/><stop stop-opacity="1" stop-color="rgb(92.951965%, 39.907837%, 40.718079%)" offset="0.84375"/><stop stop-opacity="1" stop-color="rgb(92.922974%, 39.694214%, 40.711975%)" offset="0.859375"/><stop stop-opacity="1" stop-color="rgb(92.895508%, 39.479065%, 40.705872%)" offset="0.875"/><stop stop-opacity="1" stop-color="rgb(92.866516%, 39.263916%, 40.699768%)" offset="0.890625"/><stop stop-opacity="1" stop-color="rgb(92.837524%, 39.050293%, 40.693665%)" offset="0.90625"/><stop stop-opacity="1" stop-color="rgb(92.810059%, 38.835144%, 40.689087%)" offset="0.921875"/><stop stop-opacity="1" stop-color="rgb(92.781067%, 38.621521%, 40.682983%)" offset="0.9375"/><stop stop-opacity="1" stop-color="rgb(92.752075%, 38.406372%, 40.67688%)" offset="0.953125"/><stop stop-opacity="1" stop-color="rgb(92.724609%, 38.191223%, 40.670776%)" offset="0.96875"/><stop stop-opacity="1" stop-color="rgb(92.695618%, 37.9776%, 40.664673%)" offset="0.984375"/><stop stop-opacity="1" stop-color="rgb(92.668152%, 37.762451%, 40.660095%)" offset="1"/></linearGradient><clipPath id="b24d5a6215"><path d="M 117 181 L 196 181 L 196 259 L 117 259 Z M 117 181 " clip-rule="nonzero"/></clipPath><clipPath id="3a385ed8c7"><path d="M 195.398438 253.988281 L 180.117188 238.785156 C 178.105469 236.738281 176.34375 234.496094 174.832031 232.054688 C 173.320312 229.617188 172.089844 227.042969 171.148438 224.332031 C 170.207031 221.625 169.570312 218.84375 169.246094 215.992188 C 168.917969 213.140625 168.910156 210.289062 169.214844 207.433594 C 166.363281 207.742188 163.511719 207.730469 160.664062 207.402344 C 157.8125 207.078125 155.03125 206.441406 152.324219 205.5 C 149.613281 204.558594 147.042969 203.328125 144.605469 201.8125 C 142.167969 200.300781 139.925781 198.539062 137.882812 196.527344 L 122.601562 181.152344 C 121.617188 183.925781 120.773438 186.746094 120.070312 189.601562 C 119.363281 192.460938 118.800781 195.347656 118.378906 198.261719 C 117.957031 201.175781 117.679688 204.101562 117.546875 207.042969 C 117.410156 209.984375 117.421875 212.925781 117.574219 215.867188 C 117.730469 218.808594 118.027344 221.734375 118.46875 224.644531 C 118.910156 227.554688 119.492188 230.4375 120.21875 233.289062 C 120.941406 236.144531 121.804688 238.957031 122.804688 241.722656 C 123.804688 244.492188 124.9375 247.207031 126.207031 249.863281 C 128.875 251.160156 131.597656 252.324219 134.378906 253.355469 C 137.164062 254.382812 139.988281 255.273438 142.859375 256.027344 C 145.726562 256.777344 148.625 257.386719 151.554688 257.851562 C 154.484375 258.320312 157.429688 258.640625 160.390625 258.816406 C 163.351562 258.992188 166.316406 259.023438 169.277344 258.910156 C 172.242188 258.792969 175.195312 258.535156 178.132812 258.128906 C 181.070312 257.722656 183.984375 257.175781 186.867188 256.480469 C 189.75 255.789062 192.59375 254.957031 195.398438 253.988281 Z M 195.398438 253.988281 " clip-rule="nonzero"/></clipPath><linearGradient x1="23.118567" gradientTransform="matrix(0.000000000000000526, 8.588993, -8.584601, 0.000000000000000526, 391.813505, -16.39483)" y1="32.138341" x2="33.534947" gradientUnits="userSpaceOnUse" y2="25.032594" id="ec9ca2550e"><stop stop-opacity="1" stop-color="rgb(11.651611%, 17.921448%, 38.063049%)" offset="0"/><stop stop-opacity="1" stop-color="rgb(11.584473%, 17.883301%, 37.940979%)" offset="0.015625"/><stop stop-opacity="1" stop-color="rgb(11.450195%, 17.807007%, 37.696838%)" offset="0.03125"/><stop stop-opacity="1" stop-color="rgb(11.315918%, 17.730713%, 37.454224%)" offset="0.046875"/><stop stop-opacity="1" stop-color="rgb(11.181641%, 17.655945%, 37.211609%)" offset="0.0625"/><stop stop-opacity="1" stop-color="rgb(11.047363%, 17.579651%, 36.967468%)" offset="0.078125"/><stop stop-opacity="1" stop-color="rgb(10.913086%, 17.504883%, 36.724854%)" offset="0.09375"/><stop stop-opacity="1" stop-color="rgb(10.778809%, 17.428589%, 36.482239%)" offset="0.109375"/><stop stop-opacity="1" stop-color="rgb(10.644531%, 17.352295%, 36.238098%)" offset="0.125"/><stop stop-opacity="1" stop-color="rgb(10.510254%, 17.277527%, 35.995483%)" offset="0.140625"/><stop stop-opacity="1" stop-color="rgb(10.375977%, 17.201233%, 35.751343%)" offset="0.15625"/><stop stop-opacity="1" stop-color="rgb(10.241699%, 17.124939%, 35.508728%)" offset="0.171875"/><stop stop-opacity="1" stop-color="rgb(10.107422%, 17.050171%, 35.266113%)" offset="0.1875"/><stop stop-opacity="1" stop-color="rgb(9.973145%, 16.973877%, 35.021973%)" offset="0.203125"/><stop stop-opacity="1" stop-color="rgb(9.838867%, 16.899109%, 34.779358%)" offset="0.21875"/><stop stop-opacity="1" stop-color="rgb(9.70459%, 16.822815%, 34.536743%)" offset="0.234375"/><stop stop-opacity="1" stop-color="rgb(9.571838%, 16.746521%, 34.292603%)" offset="0.25"/><stop stop-opacity="1" stop-color="rgb(9.437561%, 16.671753%, 34.049988%)" offset="0.265625"/><stop stop-opacity="1" stop-color="rgb(9.303284%, 16.595459%, 33.807373%)" offset="0.28125"/><stop stop-opacity="1" stop-color="rgb(9.169006%, 16.520691%, 33.563232%)" offset="0.296875"/><stop stop-opacity="1" stop-color="rgb(9.034729%, 16.444397%, 33.320618%)" offset="0.3125"/><stop stop-opacity="1" stop-color="rgb(8.900452%, 16.368103%, 33.078003%)" offset="0.328125"/><stop stop-opacity="1" stop-color="rgb(8.766174%, 16.293335%, 32.833862%)" offset="0.34375"/><stop stop-opacity="1" stop-color="rgb(8.631897%, 16.217041%, 32.591248%)" offset="0.359375"/><stop stop-opacity="1" stop-color="rgb(8.49762%, 16.142273%, 32.347107%)" offset="0.375"/><stop stop-opacity="1" stop-color="rgb(8.363342%, 16.065979%, 32.104492%)" offset="0.390625"/><stop stop-opacity="1" stop-color="rgb(8.229065%, 15.989685%, 31.861877%)" offset="0.406009"/><stop stop-opacity="1" stop-color="rgb(8.161926%, 15.953064%, 31.739807%)" offset="0.40625"/><stop stop-opacity="1" stop-color="rgb(8.094788%, 15.914917%, 31.617737%)" offset="0.421875"/><stop stop-opacity="1" stop-color="rgb(7.96051%, 15.838623%, 31.375122%)" offset="0.4375"/><stop stop-opacity="1" stop-color="rgb(7.826233%, 15.762329%, 31.132507%)" offset="0.453125"/><stop stop-opacity="1" stop-color="rgb(7.691956%, 15.687561%, 30.888367%)" offset="0.46875"/><stop stop-opacity="1" stop-color="rgb(7.557678%, 15.611267%, 30.645752%)" offset="0.484375"/><stop stop-opacity="1" stop-color="rgb(7.423401%, 15.536499%, 30.403137%)" offset="0.5"/><stop stop-opacity="1" stop-color="rgb(7.289124%, 15.460205%, 30.158997%)" offset="0.515625"/><stop stop-opacity="1" stop-color="rgb(7.154846%, 15.383911%, 29.916382%)" offset="0.53125"/><stop stop-opacity="1" stop-color="rgb(7.022095%, 15.309143%, 29.673767%)" offset="0.546875"/><stop stop-opacity="1" stop-color="rgb(6.887817%, 15.232849%, 29.429626%)" offset="0.5625"/><stop stop-opacity="1" stop-color="rgb(6.75354%, 15.158081%, 29.187012%)" offset="0.578125"/><stop stop-opacity="1" stop-color="rgb(6.619263%, 15.081787%, 28.942871%)" offset="0.59375"/><stop stop-opacity="1" stop-color="rgb(6.484985%, 15.005493%, 28.700256%)" offset="0.593991"/><stop stop-opacity="1" stop-color="rgb(6.417847%, 14.968872%, 28.579712%)" offset="0.609375"/><stop stop-opacity="1" stop-color="rgb(6.350708%, 14.930725%, 28.457642%)" offset="0.625"/><stop stop-opacity="1" stop-color="rgb(6.216431%, 14.854431%, 28.213501%)" offset="0.640625"/><stop stop-opacity="1" stop-color="rgb(6.082153%, 14.779663%, 27.970886%)" offset="0.65625"/><stop stop-opacity="1" stop-color="rgb(5.947876%, 14.703369%, 27.728271%)" offset="0.671875"/><stop stop-opacity="1" stop-color="rgb(5.813599%, 14.627075%, 27.484131%)" offset="0.6875"/><stop stop-opacity="1" stop-color="rgb(5.679321%, 14.552307%, 27.241516%)" offset="0.703125"/><stop stop-opacity="1" stop-color="rgb(5.545044%, 14.476013%, 26.998901%)" offset="0.71875"/><stop stop-opacity="1" stop-color="rgb(5.410767%, 14.399719%, 26.754761%)" offset="0.734375"/><stop stop-opacity="1" stop-color="rgb(5.276489%, 14.324951%, 26.512146%)" offset="0.75"/><stop stop-opacity="1" stop-color="rgb(5.142212%, 14.248657%, 26.269531%)" offset="0.765625"/><stop stop-opacity="1" stop-color="rgb(5.007935%, 14.173889%, 26.025391%)" offset="0.78125"/><stop stop-opacity="1" stop-color="rgb(4.873657%, 14.097595%, 25.782776%)" offset="0.796875"/><stop stop-opacity="1" stop-color="rgb(4.73938%, 14.021301%, 25.538635%)" offset="0.8125"/><stop stop-opacity="1" stop-color="rgb(4.605103%, 13.946533%, 25.296021%)" offset="0.828125"/><stop stop-opacity="1" stop-color="rgb(4.472351%, 13.870239%, 25.053406%)" offset="0.84375"/><stop stop-opacity="1" stop-color="rgb(4.338074%, 13.795471%, 24.809265%)" offset="0.859375"/><stop stop-opacity="1" stop-color="rgb(4.203796%, 13.719177%, 24.56665%)" offset="0.875"/><stop stop-opacity="1" stop-color="rgb(4.069519%, 13.642883%, 24.324036%)" offset="0.890625"/><stop stop-opacity="1" stop-color="rgb(3.935242%, 13.568115%, 24.079895%)" offset="0.90625"/><stop stop-opacity="1" stop-color="rgb(3.800964%, 13.491821%, 23.83728%)" offset="0.921875"/><stop stop-opacity="1" stop-color="rgb(3.666687%, 13.417053%, 23.594666%)" offset="0.9375"/><stop stop-opacity="1" stop-color="rgb(3.53241%, 13.340759%, 23.350525%)" offset="0.953125"/><stop stop-opacity="1" stop-color="rgb(3.398132%, 13.264465%, 23.10791%)" offset="0.96875"/><stop stop-opacity="1" stop-color="rgb(3.263855%, 13.189697%, 22.865295%)" offset="0.984375"/><stop stop-opacity="1" stop-color="rgb(3.129578%, 13.113403%, 22.621155%)" offset="1"/></linearGradient></defs><g clip-path="url(#1e0d383b53)"><g clip-path="url(#33080ded41)"><path fill="url(#88e4c0f419)" d="M 249.910156 172.871094 L 168.824219 172.871094 L 168.824219 254.074219 L 249.910156 254.074219 Z M 249.910156 172.871094 " fill-rule="nonzero"/></g></g><g clip-path="url(#e50189c276)"><g clip-path="url(#298aae571b)"><path fill="url(#854fcb5da3)" d="M 245.875 13.132812 L 9.148438 13.132812 L 9.148438 250.292969 L 245.875 250.292969 Z M 245.875 13.132812 " fill-rule="nonzero"/></g></g><g clip-path="url(#d222844126)"><g clip-path="url(#52e566b0a0)"><path fill="url(#dfc69e042a)" d="M 203.554688 126.527344 L 122.601562 126.527344 L 122.601562 207.65625 L 203.554688 207.65625 Z M 203.554688 126.527344 " fill-rule="nonzero"/></g></g><g clip-path="url(#bbe1500dba)"><g clip-path="url(#8826457f46)"><path fill="url(#c134ba9ec2)" d="M 366.066406 130.304688 L 126.035156 130.304688 L 126.035156 370.429688 L 366.066406 370.429688 Z M 366.066406 130.304688 " fill-rule="nonzero"/></g></g><g clip-path="url(#596d10a541)"><g clip-path="url(#129e32c31a)"><path fill="url(#191b606eea)" d="M 255.585938 121.332031 L 177.199219 121.332031 L 177.199219 199.359375 L 255.585938 199.359375 Z M 255.585938 121.332031 " fill-rule="nonzero"/></g></g><g clip-path="url(#b24d5a6215)"><g clip-path="url(#3a385ed8c7)"><path fill="url(#ec9ca2550e)" d="M 195.398438 181.152344 L 117.410156 181.152344 L 117.410156 259.023438 L 195.398438 259.023438 Z M 195.398438 181.152344 " fill-rule="nonzero"/></g></g></svg>