<?xml version="1.0" encoding="UTF-8"?>
<svg xmlns="http://www.w3.org/2000/svg" xmlns:xlink="http://www.w3.org/1999/xlink" width="375pt" height="374.999991pt" viewBox="0 0 375 374.999991" version="1.2">
<defs>
<clipPath id="clip1">
  <path d="M 0 1.027344 L 375 1.027344 L 375 375 L 0 375 Z M 0 1.027344 "/>
</clipPath>
<clipPath id="clip2">
  <path d="M 163 1.027344 L 375 1.027344 L 375 305 L 163 305 Z M 163 1.027344 "/>
</clipPath>
<clipPath id="clip3">
  <path d="M 206 1.027344 L 375 1.027344 L 375 262 L 206 262 Z M 206 1.027344 "/>
</clipPath>
<clipPath id="clip4">
  <path d="M 249 1.027344 L 375 1.027344 L 375 219 L 249 219 Z M 249 1.027344 "/>
</clipPath>
<clipPath id="clip5">
  <path d="M 293 1.027344 L 375 1.027344 L 375 175 L 293 175 Z M 293 1.027344 "/>
</clipPath>
<clipPath id="clip6">
  <path d="M 336 1.027344 L 375 1.027344 L 375 132 L 336 132 Z M 336 1.027344 "/>
</clipPath>
</defs>
<g id="surface1">
<rect x="0" y="0" width="375" height="374.999991" style="fill:rgb(100%,100%,100%);fill-opacity:1;stroke:none;"/>
<rect x="0" y="0" width="375" height="374.999991" style="fill:rgb(100%,100%,100%);fill-opacity:1;stroke:none;"/>
<rect x="0" y="0" width="375" height="374.999991" style="fill:rgb(100%,100%,100%);fill-opacity:1;stroke:none;"/>
<g clip-path="url(#clip1)" clip-rule="nonzero">
<path style=" stroke:none;fill-rule:nonzero;fill:rgb(0%,7.058716%,12.548828%);fill-opacity:1;" d="M -94.515625 1.027344 L 466.53125 1.027344 L 466.53125 375.558594 L -94.515625 375.558594 Z M -94.515625 1.027344 "/>
</g>
<g clip-path="url(#clip2)" clip-rule="nonzero">
<path style=" stroke:none;fill-rule:nonzero;fill:rgb(5.879211%,11.369324%,19.999695%);fill-opacity:1;" d="M 466.53125 304.835938 C 429.375 294.660156 392.222656 284.488281 354.632812 271.503906 C 317.105469 258.519531 279.203125 242.726562 251.960938 215.882812 C 224.78125 189.042969 208.261719 151.214844 195.296875 113.511719 C 182.265625 75.871094 172.667969 38.480469 163.128906 1.027344 L 466.53125 1.027344 Z M 466.53125 304.835938 "/>
</g>
<g clip-path="url(#clip3)" clip-rule="nonzero">
<path style=" stroke:none;fill-rule:nonzero;fill:rgb(23.919678%,18.818665%,33.729553%);fill-opacity:1;" d="M 466.53125 261.453125 C 434.675781 252.714844 402.820312 243.972656 370.652344 232.863281 C 338.425781 221.753906 305.945312 208.207031 282.632812 185.171875 C 259.316406 162.203125 245.167969 129.742188 234.007812 97.46875 C 222.847656 65.199219 214.621094 33.113281 206.453125 1.027344 L 466.53125 1.027344 Z M 466.53125 261.453125 "/>
</g>
<g clip-path="url(#clip4)" clip-rule="nonzero">
<path style=" stroke:none;fill-rule:nonzero;fill:rgb(46.669006%,23.919678%,41.958618%);fill-opacity:1;" d="M 466.53125 218.070312 C 439.972656 210.765625 413.417969 203.523438 386.613281 194.222656 C 359.808594 184.921875 332.6875 173.625 313.300781 154.460938 C 293.851562 135.296875 282.070312 108.269531 272.78125 81.367188 C 263.492188 54.523438 256.636719 27.746094 249.777344 1.027344 L 466.53125 1.027344 Z M 466.53125 218.070312 "/>
</g>
<g clip-path="url(#clip5)" clip-rule="nonzero">
<path style=" stroke:none;fill-rule:nonzero;fill:rgb(70.199585%,29.798889%,42.749023%);fill-opacity:1;" d="M 466.53125 174.625 C 445.273438 168.820312 424.078125 163.011719 402.570312 155.585938 C 381.125 148.15625 359.496094 139.105469 343.910156 123.8125 C 328.386719 108.457031 318.976562 86.859375 311.496094 65.324219 C 304.074219 43.789062 298.589844 22.4375 293.167969 1.027344 L 466.53125 1.027344 Z M 466.53125 174.625 "/>
</g>
<g clip-path="url(#clip6)" clip-rule="nonzero">
<path style=" stroke:none;fill-rule:nonzero;fill:rgb(88.238525%,40.779114%,36.859131%);fill-opacity:1;" d="M 466.53125 131.242188 C 450.570312 126.871094 434.675781 122.5 418.59375 116.945312 C 402.507812 111.390625 386.238281 104.585938 374.582031 93.101562 C 362.921875 81.613281 355.878906 65.386719 350.269531 49.21875 C 344.722656 33.113281 340.605469 17.070312 336.492188 1.027344 L 466.53125 1.027344 Z M 466.53125 131.242188 "/>
</g>
<path style=" stroke:none;fill-rule:nonzero;fill:rgb(5.879211%,11.369324%,19.999695%);fill-opacity:1;" d="M -94.515625 71.753906 C -62.910156 93.976562 -31.304688 116.195312 8.28125 126.996094 C 47.925781 137.855469 95.617188 137.296875 120.050781 160.703125 C 144.488281 184.175781 145.671875 231.613281 156.582031 271.441406 C 167.554688 311.203125 188.25 343.414062 208.886719 375.558594 L -94.515625 375.558594 Z M -94.515625 71.753906 "/>
<path style=" stroke:none;fill-rule:nonzero;fill:rgb(23.919678%,18.818665%,33.729553%);fill-opacity:1;" d="M -94.515625 115.136719 C -67.460938 134.175781 -40.34375 153.214844 -6.371094 162.515625 C 27.605469 171.816406 68.4375 171.316406 89.382812 191.414062 C 110.328125 211.515625 111.324219 252.152344 120.738281 286.296875 C 130.089844 320.378906 147.855469 347.96875 165.558594 375.558594 L -94.515625 375.558594 Z M -94.515625 115.136719 "/>
<path style=" stroke:none;fill-rule:nonzero;fill:rgb(46.669006%,23.919678%,41.958618%);fill-opacity:1;" d="M -94.515625 158.519531 C -71.949219 174.4375 -49.382812 190.292969 -21.082031 198.03125 C 7.21875 205.773438 41.320312 205.335938 58.710938 222.125 C 76.167969 238.855469 77.039062 272.75 84.832031 301.152344 C 92.6875 329.617188 107.460938 352.589844 122.234375 375.558594 L -94.515625 375.558594 Z M -94.515625 158.519531 "/>
<path style=" stroke:none;fill-rule:nonzero;fill:rgb(70.199585%,29.798889%,42.749023%);fill-opacity:1;" d="M -94.515625 201.964844 C -76.4375 214.636719 -58.421875 227.308594 -35.792969 233.550781 C -13.101562 239.730469 14.140625 239.417969 28.101562 252.777344 C 42.066406 266.195312 42.753906 293.289062 48.988281 316.070312 C 55.21875 338.792969 67.066406 357.144531 78.847656 375.558594 L -94.515625 375.558594 Z M -94.515625 201.964844 "/>
<path style=" stroke:none;fill-rule:nonzero;fill:rgb(88.238525%,40.779114%,36.859131%);fill-opacity:1;" d="M -94.515625 245.347656 C -80.988281 254.898438 -67.460938 264.386719 -50.441406 269.003906 C -33.488281 273.6875 -13.039062 273.4375 -2.566406 283.488281 C 7.90625 293.539062 8.40625 313.886719 13.078125 330.929688 C 17.816406 347.96875 26.667969 361.765625 35.523438 375.558594 L -94.515625 375.558594 Z M -94.515625 245.347656 "/>
<path style=" stroke:none;fill-rule:nonzero;fill:rgb(100%,100%,100%);fill-opacity:1;" d="M 229.050781 183.253906 L 209.910156 202.386719 C 199.347656 212.957031 182.210938 212.957031 171.644531 202.386719 C 169.980469 200.726562 168.679688 198.859375 167.535156 196.929688 L 176.429688 188.035156 C 176.851562 187.609375 177.375 187.367188 177.871094 187.078125 C 178.484375 189.179688 179.558594 191.167969 181.210938 192.820312 C 186.488281 198.097656 195.074219 198.089844 200.34375 192.820312 L 219.476562 173.6875 C 224.757812 168.40625 224.757812 159.824219 219.476562 154.550781 C 214.207031 149.273438 205.625 149.273438 200.34375 154.550781 L 193.539062 161.363281 C 188.019531 159.210938 182.070312 158.632812 176.28125 159.480469 L 190.777344 144.984375 C 201.347656 134.417969 218.480469 134.417969 229.050781 144.984375 C 239.613281 155.550781 239.613281 172.6875 229.050781 183.253906 Z M 178.453125 214.714844 L 171.644531 221.527344 C 166.371094 226.796875 157.785156 226.796875 152.507812 221.527344 C 147.234375 216.246094 147.234375 207.664062 152.507812 202.386719 L 171.644531 183.253906 C 176.925781 177.976562 185.503906 177.976562 190.777344 183.253906 C 192.425781 184.902344 193.5 186.890625 194.121094 188.988281 C 194.625 188.699219 195.136719 188.460938 195.5625 188.035156 L 204.453125 179.148438 C 203.316406 177.210938 202.007812 175.347656 200.34375 173.6875 C 189.78125 163.121094 172.644531 163.121094 162.074219 173.6875 L 142.941406 192.820312 C 132.375 203.390625 132.375 220.523438 142.941406 231.09375 C 153.511719 241.65625 170.644531 241.65625 181.210938 231.09375 L 195.714844 216.589844 C 189.917969 217.441406 183.96875 216.863281 178.453125 214.714844 Z M 178.453125 214.714844 "/>
</g>
</svg>